<svg xmlns="http://www.w3.org/2000/svg" viewBox="0 0 500.62 484.91"><title>Asklepio Logo</title><g id="Layer_2" data-name="Layer 2"><g id="Layer_1-2" data-name="Layer 1"><polygon points="411.66 242.46 500.62 293.82 419.95 433.55 330.99 382.19 330.99 484.91 169.64 484.91 169.64 382.19 80.68 433.55 0 293.82 88.97 242.46 0 191.09 80.68 51.36 169.64 102.72 169.64 0 330.99 0 330.99 102.72 419.95 51.36 500.62 191.09 411.66 242.46" style="fill:#138194"/><path d="M271.87,161v87H272V409.35h-.13A26,26,0,0,1,272,412c0,12.14-8.42,22-18.81,22s-18.8-9.84-18.8-22a26,26,0,0,1,.13-2.66h-.13V161a36.88,36.88,0,1,1,37.48,0Z" style="fill:#fff;stroke:#fff;stroke-miterlimit:10"/><path d="M231,252.09q.53,0,1,0h-1Z" style="fill:#fff;stroke:#fff;stroke-miterlimit:10"/><path d="M261.6,252.11h0Z" style="fill:#fff;stroke:#fff;stroke-miterlimit:10"/><path d="M334.4,224.74v.08h-72a13.94,13.94,0,0,0-1.45-.08Z" style="fill:#fff;stroke:#fff;stroke-miterlimit:10"/><path d="M259.73,260.28v0c-.2,0-.41,0-.61,0a7.66,7.66,0,0,1-1.87-.22H199.09a7,7,0,0,0-7,7v1.77a7,7,0,0,0,7,7h58v0c.2,0,.41,0,.61,0a7.59,7.59,0,0,1,1.07.07h35.87c.67,0,1.33,0,2,.06,15.45.82,27.66,11.17,27.66,23.82,0,13.18-13.28,23.87-29.65,23.87h-54.1v0c-.2,0-.4,0-.6,0a8.77,8.77,0,0,1-1-.06H214.71a7,7,0,0,0-7,7v1.76a7,7,0,0,0,7,7h58v0l.61,0a8,8,0,0,1,1.84.21h0a5.5,5.5,0,0,1,.58.16c15,1.19,26.69,11.37,26.69,23.75,0,13.19-13.28,23.88-29.65,23.88h-54.1v0q-.3,0-.6,0a8,8,0,1,1,0-16.09l.6,0v0h58a7,7,0,0,0,7-7v-1.76a7,7,0,0,0-7-7H218.11a2.73,2.73,0,0,1-.5-.05h-.39a7.77,7.77,0,0,1-1.46-.14C200.71,354.18,189,344,189,331.56c0-12.64,12.2-23,27.65-23.82.66,0,1.33-.05,2-.05h19.94a7.87,7.87,0,0,1,1.38-.12c.2,0,.4,0,.6,0v0h58a7,7,0,0,0,7-7V298.8a7,7,0,0,0-7-7H259a7.2,7.2,0,0,1-1.32.11c-.2,0-.41,0-.61,0v0H203c-16.38,0-29.66-10.68-29.66-23.87,0-12.65,12.21-23,27.66-23.82.66,0,1.33-.06,2-.06h54.71c.28,0,.56,0,.85,0a7.85,7.85,0,0,1,1.19.09v0h58a7,7,0,0,0,7-7v-1.77a7,7,0,0,0-7-7H259.16a2.32,2.32,0,0,1-.46,0H241.5c-.2,0-.41,0-.61,0v0H186.8c-16.38,0-29.65-10.69-29.65-23.87,0-12.65,12.21-23,27.65-23.83.66,0,1.33-.05,2-.05h126a18.1,18.1,0,0,1,11.44-3.77c8.45,0,15.3,5,15.3,11.23s-6.85,11.22-15.3,11.22a18.67,18.67,0,0,1-10.33-2.94H243.75a8,8,0,0,1-1.39.12H242a2.76,2.76,0,0,1-.51,0H182.91a7,7,0,0,0-7,7v1.76a7,7,0,0,0,7,7h58v0c.2,0,.41,0,.61,0a8.09,8.09,0,0,1,1.72.19h15a7.94,7.94,0,0,1,.85,0h54.71c.67,0,1.34,0,2,.06,15.44.82,27.65,11.17,27.65,23.82,0,13.18-13.27,23.87-29.65,23.87H259.73Z" style="fill:#fff;stroke:#fff;stroke-miterlimit:10"/><rect x="230.7" y="370.52" width="3.16" height="17.78" style="fill:#138194"/><rect x="230.75" y="306.28" width="3.16" height="17.78" style="fill:#138194"/><rect x="230.75" y="242.8" width="3.16" height="17.78" style="fill:#138194"/><rect x="272.44" y="370.52" width="3.16" height="17.78" style="fill:#138194"/><rect x="272.44" y="306.28" width="3.16" height="17.78" style="fill:#138194"/><rect x="272.44" y="243.23" width="3.16" height="17.78" style="fill:#138194"/><rect x="272.44" y="179.67" width="3.16" height="17.78" style="fill:#138194"/><rect x="230.75" y="179.67" width="3.16" height="17.78" style="fill:#138194"/><rect x="233.24" y="355.98" width="39.78" height="6.51" style="fill:#138194"/><rect x="233.24" y="292.54" width="39.78" height="6.51" style="fill:#138194"/><rect x="232.33" y="206.41" width="40.11" height="5.37" transform="translate(2.62 -3.13) rotate(0.71)" style="fill:#138194"/><rect x="233.52" y="208.47" width="22.23" height="3.35" style="fill:#138194"/><rect x="233.91" y="206.08" width="38.53" height="3.01" style="fill:#138194"/><path d="M274.73,234.66h-44V229h44Z" style="fill:#138194"/><rect x="231.68" y="331.43" width="41.91" height="7.32" style="fill:#138194"/><rect x="233.91" y="269.63" width="38.53" height="5.64" style="fill:#138194"/></g></g></svg>